# xmcd
#
# Track frame offsets:
#	150
#	14186
#	31331
#	42486
#	64627
#	80506
#	96706
#	111804
#	128361
#	141786
#	158413
#	172381
#	184488
#	200137
#
# Disc length: 2878 seconds
#
# Revision: 1
# Processed by: cddbd v1.5.2PL0 Copyright (c) Steve Scherf et al.
# Submitted via: audiograbber 1.83.01
#
DISCID=ce0b3c0e
DTITLE=CARLY AND THE OUTLAWS - Still Wamted 
DYEAR=2006
DGENRE=Country
TTITLE0=I want you bad
TTITLE1=Never going to let you go
TTITLE2=Oh lonesome me
TTITLE3=As tears come down like rain
TTITLE4=City of New Orleans
TTITLE5=Queen of hearts
TTITLE6=Rose garden
TTITLE7=Green green grass of home
TTITLE8=Broken String Blues
TTITLE9=Still wanted
TTITLE10=Dont rock the Jukebox
TTITLE11=Little Sister
TTITLE12=Good hearted woman
TTITLE13=She says
EXTD=
EXTT0=
EXTT1=
EXTT2=
EXTT3=
EXTT4=
EXTT5=
EXTT6=
EXTT7=
EXTT8=
EXTT9=
EXTT10=
EXTT11=
EXTT12=
EXTT13=
PLAYORDER=
